<svg width="199" height="198" viewBox="0 0 199 198" fill="none" xmlns="http://www.w3.org/2000/svg">
<path d="M99.5156 28C138.985 28 171.031 59.8851 171.031 99.1563C171.031 138.427 138.985 170.313 99.5156 170.313C60.0462 170.313 28 138.427 28 99.1563C28 59.8851 60.0462 28 99.5156 28Z" fill="url(#paint0_linear_1_6)"/>
<path d="M79.075 73C64.674 73 53 84.751 53 99.254C54.375 134.085 103.782 134.069 105.151 99.254C105.152 84.755 93.476 73 79.075 73ZM120.719 74.54C113.519 74.54 107.681 85.608 107.681 99.254C108.396 132.051 133.044 132.051 133.757 99.254C133.757 85.608 127.92 74.54 120.719 74.54ZM140.873 77.111C134.85 77.537 134.863 120.996 140.872 121.397C146.893 120.975 146.882 77.51 140.873 77.111Z" fill="#141414"/>
<defs>
<linearGradient id="paint0_linear_1_6" x1="82.6006" y1="53.6162" x2="121.095" y2="130.003" gradientUnits="userSpaceOnUse">
<stop stop-color="white"/>
<stop offset="0.5" stop-color="white"/>
<stop offset="1" stop-color="white"/>
</linearGradient>
</defs>
</svg>
