<svg width="95" height="127" viewBox="0 0 95 127" fill="none" xmlns="http://www.w3.org/2000/svg">
<path d="M61.7954 47.6575C57.8969 47.6482 54.7366 44.488 54.7305 40.5894V23.1788H27.8823C22.4299 23.1819 18.0093 27.5963 18 33.0487V93.7513C18.0093 99.2037 22.4299 103.618 27.8823 103.621H67.5846C73.037 103.618 77.4576 99.2037 77.47 93.7513V47.6575H61.7954ZM60.5196 55.2538C61.3104 55.2538 61.9561 55.8995 61.9561 56.6903C61.9561 57.4842 61.3104 58.1268 60.5196 58.1268H29.8934C29.0995 58.1268 28.4569 57.4842 28.4569 56.6903C28.4569 55.8995 29.0995 55.2538 29.8934 55.2538H60.5196ZM29.8934 83.9123H60.5196C61.3104 83.9123 61.9561 84.5548 61.9561 85.3487C61.9561 86.1426 61.3104 86.7852 60.5196 86.7852H29.8934C29.0995 86.7852 28.4569 86.1426 28.4569 85.3487C28.4569 84.5548 29.0995 83.9123 29.8934 83.9123ZM28.4569 71.0149C28.4538 70.6318 28.6052 70.2673 28.8739 69.9954C29.1458 69.7267 29.5103 69.5753 29.8934 69.5784H60.5196C61.3104 69.5784 61.9561 70.221 61.9561 71.0149C61.9561 71.8057 61.3104 72.4514 60.5196 72.4514H29.8934C29.5103 72.4544 29.1427 72.3031 28.8739 72.0343C28.6021 71.7625 28.4507 71.3949 28.4569 71.0149Z" fill="white"/>
<path d="M61.7955 44.7845H77.4113C77.1765 42.5387 76.1787 40.4442 74.5816 38.8502L61.7955 26.0671C60.6339 24.8932 59.1882 24.0375 57.6034 23.5803V40.5894C57.6034 42.9032 59.4816 44.7814 61.7955 44.7845Z" fill="white"/>
</svg>
