<svg width="199" height="198" viewBox="0 0 199 198" fill="none" xmlns="http://www.w3.org/2000/svg">
<path d="M99.5 27.8438C138.969 27.8438 171.016 59.7289 171.016 99C171.016 138.271 138.969 170.156 99.5 170.156C60.0305 170.156 27.9844 138.271 27.9844 99C27.9844 59.7289 60.0305 27.8438 99.5 27.8438Z" fill="url(#paint0_linear_1_26)"/>
<path d="M61.8121 98.3261L105.207 80.5575C109.52 78.6691 124.014 72.7464 124.014 72.7464C124.014 72.7464 130.743 70.1712 130.139 76.4374C129.967 79.0124 128.5 88.1112 126.947 97.8969L122.288 126.996C122.288 126.996 121.943 131.288 118.751 131.974C115.559 132.747 110.383 129.399 109.434 128.627C108.657 128.112 95.4581 119.7 90.6268 115.665C89.3328 114.549 87.8662 112.318 90.7992 109.742C97.5284 103.648 105.552 96.0085 110.383 91.2015C112.626 88.9698 114.869 83.8193 105.552 90.0856L79.3251 107.768C79.3251 107.768 76.3058 109.657 70.7843 107.94C65.2631 106.223 58.7063 104.077 58.7063 104.077C58.7063 104.077 54.134 101.33 61.8121 98.3261Z" fill="black"/>
<defs>
<linearGradient id="paint0_linear_1_26" x1="82.585" y1="53.46" x2="121.08" y2="129.846" gradientUnits="userSpaceOnUse">
<stop stop-color="white"/>
<stop offset="0.5" stop-color="white"/>
<stop offset="1" stop-color="white"/>
</linearGradient>
</defs>
</svg>
