<svg width="199" height="198" viewBox="0 0 199 198" fill="none" xmlns="http://www.w3.org/2000/svg">
<path d="M99.5 27.8438C138.969 27.8438 171.016 59.7289 171.016 99C171.016 138.271 138.969 170.156 99.5 170.156C60.0305 170.156 27.9844 138.271 27.9844 99C27.9844 59.7289 60.0305 27.8438 99.5 27.8438Z" fill="url(#paint0_linear_1_46)"/>
<path d="M127.316 125.324L105.534 93.8379L103.071 90.2769L87.4897 67.7539L86.1983 65.8871H67.0517L71.7212 72.6388L92.4387 102.589L94.9015 106.146L111.548 130.211L112.839 132.076H131.986L127.316 125.324ZM115.115 127.767L97.8209 102.766L95.3582 99.2067L75.2903 70.1963H83.9226L100.152 93.6577L102.614 97.2167L123.747 127.767H115.115Z" fill="black"/>
<path d="M95.3582 99.2068L97.8209 102.766L94.9015 106.146L72.5008 132.076H66.9769L92.4388 102.589L95.3582 99.2068Z" fill="black"/>
<path d="M129.681 65.8871L105.534 93.8379L102.614 97.2167L100.152 93.6577L103.071 90.2769L119.428 71.3343L124.157 65.8871H129.681Z" fill="black"/>
<defs>
<linearGradient id="paint0_linear_1_46" x1="82.585" y1="53.46" x2="121.08" y2="129.846" gradientUnits="userSpaceOnUse">
<stop stop-color="white"/>
<stop offset="0.5" stop-color="white"/>
<stop offset="1" stop-color="white"/>
</linearGradient>
</defs>
</svg>
